<?xml version="1.0" encoding="UTF-8"?>
<svg version="1.1" xmlns="http://www.w3.org/2000/svg" width="500" height="500">
<path d="M0 0 C1.12462646 0.26586914 1.12462646 0.26586914 2.27197266 0.53710938 C36.667707 8.9212202 67.69735824 27.59461504 93 52 C93.89847656 52.8353125 94.79695313 53.670625 95.72265625 54.53125 C103.81775074 62.26526833 110.46222396 70.93901839 117 80 C117.45793945 80.63454102 117.91587891 81.26908203 118.38769531 81.92285156 C129.84077471 97.99479793 138.28427875 115.1215044 144 134 C144.30035156 134.98887207 144.60070312 135.97774414 144.91015625 136.99658203 C152.66423633 163.01249401 156.23025532 189.09377637 156.25 216.1875 C156.25067474 217.0242627 156.25134949 217.86102539 156.25204468 218.72314453 C156.17687127 277.70405883 135.54373636 330.02631552 94 372 C91.43711451 374.48805671 88.78197663 376.7616843 86 379 C84.92666547 379.89663545 83.85379489 380.7938264 82.78125 381.69140625 C73.6591251 389.24405409 64.14338372 395.89253238 54 402 C53.24122559 402.45761719 52.48245117 402.91523438 51.70068359 403.38671875 C8.25025908 429.2235733 -46.82258662 441.13671429 -97 432 C-98.24547607 431.78996338 -98.24547607 431.78996338 -99.51611328 431.57568359 C-114.02383217 429.0839887 -127.8013801 425.06321735 -141.66845703 420.21484375 C-142.31053101 419.99565277 -142.95260498 419.77646179 -143.61413574 419.55062866 C-145.3643161 418.95242764 -147.10936263 418.33926586 -148.85400391 417.72509766 C-155.42864552 416.20975654 -160.16814542 418.87832125 -165.8125 422 C-167.50288257 422.91205607 -169.19438036 423.8220469 -170.88671875 424.73046875 C-171.8411084 425.24399902 -172.79549805 425.7575293 -173.77880859 426.28662109 C-181.61113634 430.45270235 -189.52333722 434.46821388 -197.41943359 438.51171875 C-204.09027603 441.93174087 -210.74075118 445.37792109 -217.33203125 448.94921875 C-218.45399902 449.55145264 -219.5759668 450.15368652 -220.73193359 450.77416992 C-222.79840167 451.88672612 -224.85795817 453.01226485 -226.90869141 454.15356445 C-232.80862723 457.3129611 -238.20422853 459.40698598 -245 459 C-250.3616411 457.31718569 -253.92462151 454.79759045 -257 450 C-260.21521842 440.35434473 -256.27643285 430.38298463 -253.6953125 420.99609375 C-253.25069551 419.34687355 -252.80709911 417.6973779 -252.36447144 416.04762268 C-251.20130213 411.72275412 -250.02483884 407.40161527 -248.84533691 403.08117676 C-247.65088719 398.69747948 -246.46831955 394.3105825 -245.28515625 389.92382812 C-243.95265912 384.98496682 -242.61906616 380.046433 -241.27590942 375.11045837 C-241.07100891 374.35678482 -240.8661084 373.60311127 -240.65499878 372.82659912 C-240.27671137 371.43587271 -239.89779629 370.04531677 -239.51806641 368.65498352 C-239.00600112 366.77162168 -238.50294323 364.88581834 -238 363 C-237.78990673 362.29408785 -237.57981346 361.5881757 -237.36335373 360.86087227 C-236.81567814 358.93130639 -236.39950471 356.96559635 -236 355 C-237.48184607 352.363139 -238.67928809 350.7185796 -240.6875 348.5625 C-241.72982043 347.33830038 -242.76608002 346.10891988 -243.796875 344.875 C-244.6002832 343.92173828 -244.6002832 343.92173828 -245.41992188 342.94921875 C-273.0033593 308.92169026 -288.93527435 260.20132747 -289.203125 216.546875 C-289.21022995 215.77303467 -289.2173349 214.99919434 -289.22465515 214.2019043 C-289.63387347 156.51115037 -271.34231156 103.76325245 -231.39892578 61.50048828 C-229.34152558 59.2937201 -227.36336653 57.01891207 -225.375 54.75 C-205.59335315 32.86018475 -178.43827979 17.23545425 -151 7 C-150.21044922 6.69900391 -149.42089844 6.39800781 -148.60742188 6.08789062 C-100.83230489 -11.8804573 -49.16180202 -11.80394875 0 0 Z " fill="#0392EF" transform="translate(320,20)"/>
<path d="M0 0 C5.0202982 4.56042355 8.76701492 10.01234876 12.48046875 15.6484375 C12.91103073 16.29815018 13.34159271 16.94786285 13.78520203 17.61726379 C15.19274334 19.74313091 16.59668474 21.87134121 18 24 C18.70675873 25.07056137 18.70675873 25.07056137 19.42779541 26.16275024 C22.501371 30.81865866 25.56962457 35.47805259 28.63577271 40.13885498 C30.36729315 42.77078623 32.09945511 45.40229426 33.83178711 48.03369141 C36.29359778 51.77318212 38.75527652 55.51275959 41.21679688 59.25244141 C42.4778617 61.16829617 43.73892942 63.08414902 45 65 C45.62543701 65.95018005 46.25087402 66.90036011 46.89526367 67.8793335 C67.71875136 99.51642194 67.71875136 99.51642194 88.69140625 131.0546875 C89.56176514 132.35937988 89.56176514 132.35937988 90.44970703 133.69042969 C91.405181 135.11386019 92.36814079 136.53233881 93.34326172 137.94238281 C96 141.79852797 96 141.79852797 96 144 C96.66 144 97.32 144 98 144 C97.99723462 143.35046199 97.99446924 142.70092398 97.99162006 142.031703 C97.92521543 126.18867106 97.87564924 110.34568789 97.84456348 94.50255108 C97.82912906 86.84076103 97.80810549 79.17906419 97.77368164 71.51733398 C97.74367391 64.83528588 97.72440014 58.15330532 97.71773452 51.4711917 C97.7138414 47.93674561 97.70476459 44.40249263 97.68280983 40.86810875 C97.65843504 36.91163023 97.65803727 32.95533646 97.65942383 28.9987793 C97.648638 27.8414328 97.63785217 26.6840863 97.6267395 25.4916687 C97.66604978 15.08135642 99.04065202 5.17218183 106.53125 -2.5859375 C113.26592988 -8.86143466 119.82579527 -10.59809836 128.96484375 -10.35546875 C135.64462937 -9.57315152 142.33248816 -6.9342268 147 -2 C151.16466545 4.52582906 153.14984518 9.66113029 153.14044189 17.43067932 C153.14341302 18.19389478 153.14638414 18.95711024 153.1494453 19.74345344 C153.15813836 22.30887907 153.15964108 24.87425806 153.16113281 27.43969727 C153.1657607 29.2761088 153.17078533 31.11251938 153.17617798 32.94892883 C153.18931024 37.94513069 153.19574901 42.9413191 153.20018864 47.93753552 C153.20311916 51.06018012 153.20722402 54.18282104 153.21169281 57.30546379 C153.2253724 67.07863808 153.23503574 76.85180398 153.2388947 86.62498719 C153.24337113 97.89992104 153.26089784 109.1747334 153.2898953 120.44963032 C153.31153602 129.16739956 153.32160033 137.88513468 153.32293582 146.60293049 C153.3239825 151.80785505 153.32986075 157.01266548 153.34775543 162.21756172 C153.36427652 167.11854561 153.36637202 172.01933009 153.35761642 176.92033195 C153.3568481 178.71414093 153.36116161 180.5079608 153.37107468 182.30174255 C153.44080243 195.71131926 152.71782836 207.57585252 143.25 217.91015625 C134.0492316 226.64717624 123.04147438 228.40316359 110.73046875 228.2734375 C96.79668489 227.25211303 87.10990856 220.73974544 78.11750793 210.54780579 C74.79490308 206.55001587 71.97598801 202.27874788 69.15625 197.91796875 C68.54285767 196.98253738 67.92946533 196.04710602 67.29748535 195.08332825 C65.35808009 192.12250226 63.42880205 189.15524148 61.5 186.1875 C60.20771764 184.20983777 58.91475398 182.23262056 57.62109375 180.25585938 C55.14849078 176.47645406 52.67885019 172.6951414 50.21142578 168.91235352 C46.51334136 163.24838611 42.76633855 157.61881987 39 152 C37.39716877 149.59850162 35.79630991 147.19568993 34.1953125 144.79296875 C33.35550172 143.53318115 32.51565776 142.27341566 31.67578125 141.01367188 C24.88639323 130.82958984 18.09700521 120.64550781 11.30761719 110.46142578 C10.93122101 109.89684158 10.55482483 109.33225739 10.16702271 108.75056458 C9.34852453 107.52279591 8.53006693 106.29500021 7.7116394 105.06718445 C5.23528158 101.35219077 5.23528158 101.35219077 2.75634766 97.63891602 C0.41370472 94.13228218 -1.91199341 90.61507893 -4.2265625 87.08984375 C-4.77070801 86.26460205 -5.31485352 85.43936035 -5.87548828 84.58911133 C-6.9427089 82.97031696 -8.00630382 81.34912532 -9.06591797 79.7253418 C-9.79125732 78.62766479 -9.79125732 78.62766479 -10.53125 77.5078125 C-10.95986328 76.85441895 -11.38847656 76.20102539 -11.83007812 75.52783203 C-12.93971636 73.84753797 -12.93971636 73.84753797 -15 73 C-14.99815641 73.63923055 -14.99631283 74.27846109 -14.99441338 74.93706226 C-14.95014076 90.52974842 -14.91709807 106.12241254 -14.89637566 121.71514606 C-14.88608672 129.25583982 -14.87207223 136.79649148 -14.84912109 144.3371582 C-14.82911396 150.91373051 -14.81626627 157.49027231 -14.81182301 164.06687421 C-14.80922797 167.54538228 -14.80317883 171.02380313 -14.78853989 174.5022831 C-14.77228614 178.39647617 -14.77202498 182.29058585 -14.77294922 186.18481445 C-14.76575867 187.32345947 -14.75856812 188.46210449 -14.75115967 189.63525391 C-14.77844771 200.30802858 -15.33011593 211.61013065 -22.72265625 219.94140625 C-28.91510029 225.83838576 -35.0756536 228.08194591 -43.5625 228.375 C-51.20026492 228.1193426 -56.81079704 225.91893924 -62.4609375 220.74609375 C-67.96346584 214.50337759 -69.14926884 207.55507067 -69.14717102 199.49375916 C-69.15268605 198.35483801 -69.15268605 198.35483801 -69.1583125 197.19290835 C-69.169332 194.64674649 -69.17319027 192.10062547 -69.17700195 189.55444336 C-69.18326803 187.72935863 -69.18991495 185.90427518 -69.19691467 184.07919312 C-69.2179443 178.08275234 -69.22831757 172.08631135 -69.23828125 166.08984375 C-69.24232953 164.02348886 -69.24644647 161.95713411 -69.25063133 159.8907795 C-69.26968235 150.1800794 -69.28391232 140.46938689 -69.2922433 130.7586717 C-69.302009 119.56126214 -69.32831154 108.36405061 -69.36874419 97.16671079 C-69.39894397 88.50495709 -69.41371593 79.84326003 -69.41702431 71.18145472 C-69.41937082 66.01168279 -69.42827898 60.84212244 -69.45348549 55.67240715 C-69.47683811 50.80419566 -69.48097058 45.93633397 -69.47072411 41.0680809 C-69.47023035 39.28758516 -69.47650336 37.50707177 -69.49028015 35.72662926 C-69.59631646 21.20276897 -67.65438312 10.1647153 -57.41015625 -0.68359375 C-41.73478854 -15.47376422 -16.09327049 -12.15206139 0 0 Z " fill="#FCFDFE" transform="translate(214,125)"/>
<path d="M0 0 C0 0.66 0 1.32 0 2 C-3.51892992 3.17297664 -6.7091341 3.16209516 -10.37109375 3.16796875 C-11.0898317 3.17129715 -11.80856964 3.17462555 -12.54908752 3.17805481 C-14.06795615 3.18311293 -15.58683586 3.18546348 -17.10571289 3.18530273 C-19.42547972 3.18748867 -21.74477044 3.2056541 -24.06445312 3.22460938 C-25.54166504 3.22754367 -27.01887922 3.22952822 -28.49609375 3.23046875 C-29.53376137 3.24124702 -29.53376137 3.24124702 -30.59239197 3.25224304 C-34.23385138 3.23502554 -36.90272021 2.99389547 -40 1 C-34.94630895 0.85687046 -29.89259795 0.71447432 -24.83886719 0.57275391 C-23.12011152 0.5244524 -21.40136145 0.47595148 -19.68261719 0.42724609 C-17.21030095 0.35722095 -14.7379654 0.28791603 -12.265625 0.21875 C-11.11540863 0.18593933 -11.11540863 0.18593933 -9.94195557 0.15246582 C-6.62581869 0.06031228 -3.31777923 0 0 0 Z " fill="#218EEB" transform="translate(276,451)"/>
<path d="M0 0 C0.99 0.66 1.98 1.32 3 2 C-1.29 6.29 -5.58 10.58 -10 15 C-10.99 14.67 -11.98 14.34 -13 14 C-12.56429687 13.57589844 -12.12859375 13.15179688 -11.6796875 12.71484375 C-7.54991517 8.64764373 -3.71958871 4.44536212 0 0 Z " fill="#119BF8" transform="translate(97,72)"/>
<path d="M0 0 C0.66 0.66 1.32 1.32 2 2 C-0.625 5.875 -0.625 5.875 -4 7 C-4 7.66 -4 8.32 -4 9 C-5.65 9.33 -7.3 9.66 -9 10 C-9 9.01 -9 8.02 -9 7 C-7.03125 5.17578125 -7.03125 5.17578125 -4.5 3.3125 C-3.6646875 2.68988281 -2.829375 2.06726562 -1.96875 1.42578125 C-1.3190625 0.95527344 -0.669375 0.48476563 0 0 Z " fill="#1AA2F8" transform="translate(116,56)"/>
<path d="M0 0 C1.2077558 3.62326739 0.54311128 4.64146369 -1 8 C-1.66 8 -2.32 8 -3 8 C-3.66 9.32 -4.32 10.64 -5 12 C-5.99 12 -6.98 12 -8 12 C-5.6163187 7.65829477 -3.21880117 3.7935871 0 0 Z " fill="#1FA1F7" transform="translate(77,94)"/>
<path d="M0 0 C0.99 0.33 1.98 0.66 3 1 C2.38983051 6.49152542 2.38983051 6.49152542 0.5625 8.875 C-1 10 -1 10 -3 10 C-2.01 6.7 -1.02 3.4 0 0 Z " fill="#1F9DF3" transform="translate(47,144)"/>
<path d="M0 0 C-1.77945087 4.04420651 -4.39529673 7.46078487 -7 11 C-8 8 -8 8 -6.75 4.9375 C-4.96194124 1.93611565 -3.71921529 0 0 0 Z " fill="#2696EE" transform="translate(440,360)"/>
<path d="M0 0 C-1.55500981 3.81684226 -4.03595495 6.19195732 -7 9 C-7.99 8.67 -8.98 8.34 -10 8 C-8.71451591 6.66070495 -7.42141845 5.32871357 -6.125 4 C-5.04605469 2.88625 -5.04605469 2.88625 -3.9453125 1.75 C-2 0 -2 0 0 0 Z " fill="#43A1F0" transform="translate(421,383)"/>
<path d="M0 0 C0.99 0.66 1.98 1.32 3 2 C0.6875 4.5 0.6875 4.5 -2 7 C-2.99 7 -3.98 7 -5 7 C-3.70700306 4.11562221 -2.34058637 2.12780579 0 0 Z " fill="#33ABF9" transform="translate(97,72)"/>
<path d="M0 0 C2.88437779 1.29299694 4.87219421 2.65941363 7 5 C4 6 4 6 1.8125 5.0625 C1.214375 4.711875 0.61625 4.36125 0 4 C0 2.68 0 1.36 0 0 Z " fill="#22A4F8" transform="translate(389,53)"/>
<path d="M0 0 C-0.6875 1.9375 -0.6875 1.9375 -2 4 C-4.5 4.875 -4.5 4.875 -7 5 C-7.66 4.34 -8.32 3.68 -9 3 C-2.25 0 -2.25 0 0 0 Z " fill="#1BA1F8" transform="translate(159,32)"/>
<path d="M0 0 C5.28 0 10.56 0 16 0 C16 0.33 16 0.66 16 1 C9.74066138 3.01193027 6.25933862 3.01193027 0 1 C0 0.67 0 0.34 0 0 Z " fill="#24A4F9" transform="translate(227,13)"/>
<path d="M0 0 C4.455 0.99 4.455 0.99 9 2 C9 2.33 9 2.66 9 3 C2.25 4.125 2.25 4.125 0 3 C0 2.01 0 1.02 0 0 Z " fill="#30A9F7" transform="translate(325,22)"/>
<path d="M0 0 C0.928125 0.20625 1.85625 0.4125 2.8125 0.625 C0.24036866 2.24449011 -0.86419159 2.66908751 -3.9375 2.25 C-4.68 2.04375 -5.4225 1.8375 -6.1875 1.625 C-3.1875 -0.375 -3.1875 -0.375 0 0 Z " fill="#2593EE" transform="translate(304.1875,447.375)"/>
<path d="M0 0 C-0.75 1.9375 -0.75 1.9375 -2 4 C-4.125 4.75 -4.125 4.75 -6 5 C-6 4.01 -6 3.02 -6 2 C-2.25 0 -2.25 0 0 0 Z " fill="#32A9F8" transform="translate(150,36)"/>
<path d="M0 0 C-0.33 0.99 -0.66 1.98 -1 3 C-2.65 3.33 -4.3 3.66 -6 4 C-6 3.34 -6 2.68 -6 2 C-6.66 1.67 -7.32 1.34 -8 1 C-5.10765685 0.17361624 -3.11257569 0 0 0 Z " fill="#2AA7F8" transform="translate(198,19)"/>
</svg>
